<svg xmlns="http://www.w3.org/2000/svg" width="24" height="24" viewBox="0 0 24 24" fill="none">
  <rect x="2.5" y="2.5" width="19" height="19" rx="4" fill="#111827" stroke="#F59E0B"/>
  <path d="M9.2 16.9c.5.8 1.2 1.3 2.3 1.3 1 0 1.6-.5 1.6-1.2 0-.8-.6-1.1-1.7-1.6l-.6-.2c-1.8-.8-3-1.7-3-3.7 0-1.8 1.4-3.2 3.6-3.2 1.6 0 2.7.5 3.5 2l-1.9 1.2c-.4-.8-.9-1.1-1.6-1.1-.7 0-1.2.5-1.2 1.1 0 .8.5 1.1 1.6 1.6l.6.2c2.2.9 3.4 1.8 3.4 3.9 0 2.2-1.7 3.4-4.1 3.4-2.3 0-3.7-1.1-4.5-2.5l2-.9z" fill="#F59E0B"/>
</svg>
